HIERARCHY
ROOT Hips
{
	OFFSET 0.00000 0.00000 0.00000
	CHANNELS 6 Xposition Yposition Zposition Zrotation Yrotation Xrotation 
	JOINT LHipJoint
	{
		OFFSET 0 0 0
		CHANNELS 3 Zrotation Yrotation Xrotation
		JOINT LeftHip
		{
			OFFSET 1.62964 -1.40469 0.78906
			CHANNELS 3 Zrotation Yrotation Xrotation
			JOINT LeftKnee
			{
				OFFSET 2.29640 -6.30932 0.00000
				CHANNELS 3 Zrotation Yrotation Xrotation
				JOINT LeftAnkle
				{
					OFFSET 2.29451 -6.30412 0.00000
					CHANNELS 3 Zrotation Yrotation Xrotation
					JOINT LeftToe
					{
						OFFSET 0.03611 -0.09921 1.56387
						CHANNELS 3 Zrotation Yrotation Xrotation
						End Site
						{
							OFFSET 0.00000 -0.00000 0.80291
						}
					}
				}
			}
		}
	}
	JOINT RHipJoint
	{
		OFFSET 0 0 0
		CHANNELS 3 Zrotation Yrotation Xrotation
		JOINT RightHip
		{
			OFFSET -1.73712 -1.40469 0.78906
			CHANNELS 3 Zrotation Yrotation Xrotation
			JOINT RightKnee
			{
				OFFSET -2.28137 -6.26801 0.00000
				CHANNELS 3 Zrotation Yrotation Xrotation
				JOINT RightAnkle
				{
					OFFSET -2.28681 -6.28298 0.00000
					CHANNELS 3 Zrotation Yrotation Xrotation
					JOINT RightToe
					{
						OFFSET -0.15927 -0.43759 1.61103
						CHANNELS 3 Zrotation Yrotation Xrotation
						End Site
						{
							OFFSET -0.00000 -0.00000 0.84630
						}
					}
				}
			}
		}
	}
	JOINT lowerback
	{
		OFFSET 0 0 0
		CHANNELS 3 Zrotation Yrotation Xrotation
		JOINT Chest
		{
			OFFSET -0.04227 2.04338 -0.00225
			CHANNELS 3 Zrotation Yrotation Xrotation
			JOINT Chest2
			{
				OFFSET -0.02148 2.04482 -0.04273
				CHANNELS 3 Zrotation Yrotation Xrotation
				JOINT lowerneck
				{
					OFFSET 0 0 0
					CHANNELS 3 Zrotation Yrotation Xrotation
					JOINT Neck
					{
						OFFSET 0.09180 1.44629 0.19359
						CHANNELS 3 Zrotation Yrotation Xrotation
						JOINT Head
						{
							OFFSET 0.00887 1.40645 0.14750
							CHANNELS 3 Zrotation Yrotation Xrotation
							End Site
							{
								OFFSET -0.00669 1.50671 0.03707
							}
						}
					}
				}
				JOINT LeftCollar
				{
					OFFSET 0 0 0
					CHANNELS 3 Zrotation Yrotation Xrotation
					JOINT LeftShoulder
					{
						OFFSET 2.17674 1.86763 -0.06520
CHANNELS 3 Zrotation Xrotation Yrotation
						JOINT LeftElbow
						{
OFFSET 0 -4.657760 0.000000
CHANNELS 3 Zrotation Xrotation Yrotation
							JOINT LeftWrist
							{
OFFSET 0 -3.555390 0.000000
CHANNELS 3 Zrotation Xrotation Yrotation
								JOINT lhand
								{
									OFFSET 0 0 0
CHANNELS 3 Zrotation Xrotation Yrotation
									JOINT LFingers
									{
OFFSET 0 -0.707260 0.000000
CHANNELS 3 Zrotation Xrotation Yrotation
										End Site
										{
OFFSET 0 -0.570220 0.000000
										}
									}
								}
								JOINT LThumb
								{
OFFSET 0 0.000000 0.000000
CHANNELS 3 Zrotation Xrotation Yrotation
									End Site
									{
OFFSET 0 -0.578920 0.578920
									}
								}
							}
						}
					}
				}
				JOINT RightCollar
				{
					OFFSET 0 0 0
					CHANNELS 3 Zrotation Yrotation Xrotation
					JOINT RightShoulder
					{
						OFFSET -2.80694 1.55459 -0.32496
CHANNELS 3 Zrotation Xrotation Yrotation
						JOINT RightElbow
						{
OFFSET 0 -4.719250 -0.000000
CHANNELS 3 Zrotation Xrotation Yrotation
							JOINT RightWrist
							{
OFFSET 0 -3.569900 0.000000
CHANNELS 3 Zrotation Xrotation Yrotation
								JOINT rhand
								{
									OFFSET 0 0 0
CHANNELS 3 Zrotation Xrotation Yrotation
									JOINT RFingers
									{
OFFSET 0 -0.507760 0.000000
CHANNELS 3 Zrotation Xrotation Yrotation
										End Site
										{
OFFSET 0 -0.409370 0.000000
										}
									}
								}
								JOINT RThumb
								{
OFFSET 0 0.000000 0.000000
CHANNELS 3 Zrotation Xrotation Yrotation
									End Site
									{
OFFSET 0 -0.415620 0.415620
									}
								}
							}
						}
					}
				}
			}
		}
	}
}
MOTION
Frames: 9
Frame Time: 0.008333333333333333
9.067330 16.228529 31.654937 178.448638 -2.896816 -154.389484 0.000000 0.000000 0.000000 -17.417269 -20.311248 -24.789462 0.574535 4.853992 13.492579 0.312382 -1.208067 -10.202698 3.491755 -11.451273 -33.817601 0.000000 0.000000 0.000000 16.895448 17.470430 -23.220940 -0.453481 -4.320273 11.979532 -1.430627 -3.366856 -24.024914 -1.503723 7.745051 -21.942593 -5.319155 -1.924000 -24.432186 -0.286974 -1.272765 -0.017774 2.243024 -1.054716 13.856439 4.765614 -2.424044 -8.639968 -5.562870 -3.525940 14.475029 -2.802281 -2.013545 5.593620 0.000000 0.000000 0.000000 8.234190 1.049228 -25.233463 12.494115 -20.541514 2.272740 19.756240 1.475005 11.959520 0.000000 0.000000 0.000000 -7.125000 0.000000 0.000000 -5.183402 17.327980 -3.418488 0.000000 0.000000 0.000000 0.252397 4.788036 5.637968 -13.653174 -22.236692 -2.695497 -8.623725 10.623358 49.246920 0.000000 0.000000 0.000000 7.125000 0.000000 0.000000 56.361677 72.945956 -40.580250
9.068225 16.227823 31.655530 178.481566 -2.845388 -154.253593 0.000000 0.000000 0.000000 -17.322387 -20.302344 -24.995248 0.578351 4.869983 13.538070 0.317431 -1.197135 -10.289586 3.524455 -11.499151 -33.982321 0.000000 0.000000 0.000000 16.869787 17.577151 -23.395608 -0.458388 -4.342993 12.043715 -1.441179 -3.323770 -24.085935 -1.456910 7.628985 -21.592752 -5.416478 -1.950153 -24.304759 -0.137575 -1.302252 -0.018458 2.462479 -1.078050 13.792998 4.660463 -2.392140 -8.692862 -5.583335 -3.465797 14.471199 -2.788485 -1.991661 5.606271 0.000000 0.000000 0.000000 8.105510 1.357180 -25.224882 12.515802 -20.573641 2.280352 19.916083 1.477292 11.746250 0.000000 0.000000 0.000000 -7.125000 0.000000 0.000000 -5.066899 17.538841 -3.317609 0.000000 0.000000 0.000000 -0.053314 5.097472 5.638879 -13.671041 -22.262501 -2.702236 -8.673868 10.521386 49.074717 0.000000 0.000000 0.000000 7.125000 0.000000 0.000000 55.830387 72.877991 -40.068205
9.068046 16.227488 31.657582 178.456563 -2.831553 -154.106958 0.000000 0.000000 0.000000 -17.260814 -20.503759 -25.133210 0.580982 4.880769 13.568734 0.325578 -1.073357 -10.455237 3.515863 -11.486717 -33.939416 0.000000 0.000000 0.000000 16.790542 17.588880 -23.615738 -0.463830 -4.368506 12.115767 -1.446981 -3.306618 -24.122591 -1.478974 7.683968 -21.758394 -5.356348 -1.963075 -24.249266 -0.143699 -1.327767 0.057227 2.412325 -1.084012 13.852205 4.603807 -2.397712 -8.663240 -5.548061 -3.469288 14.433604 -2.766784 -1.993071 5.591062 0.000000 0.000000 0.000000 8.253523 1.559346 -25.330641 12.548389 -20.621938 2.291768 19.990929 1.317331 11.689592 0.000000 0.000000 0.000000 -7.125000 0.000000 0.000000 -5.013258 17.592247 -3.276219 0.000000 0.000000 0.000000 -0.130292 5.325193 5.696920 -13.710691 -22.319642 -2.717286 -9.068160 10.738839 49.431796 0.000000 0.000000 0.000000 7.125000 0.000000 0.000000 56.573490 73.198625 -41.022665
9.068668 16.226809 31.660114 178.397312 -2.803915 -153.926392 0.000000 0.000000 0.000000 -17.216697 -20.833209 -25.258465 0.583041 4.889242 13.592975 0.333760 -0.779610 -10.668274 3.646208 -11.672407 -34.584759 0.000000 0.000000 0.000000 16.657564 17.601797 -23.872168 -0.467296 -4.384569 12.161225 -1.453582 -3.257931 -24.149839 -1.485181 7.699471 -21.805016 -5.386522 -1.999304 -24.244824 -0.124964 -1.357380 0.149508 2.439968 -1.100411 13.963415 4.537893 -2.403000 -8.643663 -5.506701 -3.471690 14.391728 -2.741666 -1.993868 5.576608 0.000000 0.000000 0.000000 8.315830 1.693846 -25.280538 12.530587 -20.595563 2.285517 20.087119 1.434955 11.822804 0.000000 0.000000 0.000000 -7.125000 0.000000 0.000000 -4.949307 17.443653 -3.250166 0.000000 0.000000 0.000000 -0.265867 5.508437 5.701266 -13.732442 -22.350978 -2.725523 -9.571099 11.082691 50.000243 0.000000 0.000000 0.000000 7.125000 0.000000 0.000000 57.921532 73.654150 -42.637633
9.071381 16.225926 31.662153 178.347457 -2.745842 -153.735486 0.000000 0.000000 0.000000 -17.144697 -21.158959 -25.398323 0.585228 4.898300 13.618846 0.341715 -0.488930 -10.880999 3.713459 -11.768897 -34.919300 0.000000 0.000000 0.000000 16.523542 17.651631 -24.137152 -0.470249 -4.398087 12.199396 -1.460798 -3.178287 -24.167295 -1.478324 7.682505 -21.753821 -5.424926 -2.035075 -24.487873 -0.123626 -1.353266 0.376281 2.458874 -1.106532 14.373027 4.484974 -2.414521 -8.599361 -5.428949 -3.486896 14.306965 -2.706463 -1.996251 5.544485 0.000000 0.000000 0.000000 8.409041 1.613445 -25.077852 12.527795 -20.591482 2.284564 19.960912 1.608569 11.864940 0.000000 0.000000 0.000000 -7.125000 0.000000 0.000000 -5.038484 17.409914 -3.312822 0.000000 0.000000 0.000000 -0.341934 5.355654 5.443557 -13.654071 -22.237921 -2.695860 -9.877125 11.469474 50.281922 0.000000 0.000000 0.000000 7.125000 0.000000 0.000000 58.565512 73.899234 -43.440426
9.075229 16.225507 31.664243 178.355509 -2.675041 -153.543973 0.000000 0.000000 0.000000 -16.992841 -21.390806 -25.590012 0.588844 4.913153 13.661137 0.349965 -0.318760 -11.067065 3.610597 -11.622015 -34.409307 0.000000 0.000000 0.000000 16.447705 17.752398 -24.414212 -0.475765 -4.423362 12.270844 -1.466615 -3.100906 -24.175358 -1.477729 7.681052 -21.749426 -5.383646 -2.042548 -24.870318 -0.149715 -1.314130 0.689258 2.410323 -1.092726 14.961016 4.454375 -2.426335 -8.582374 -5.331890 -3.506157 14.197131 -2.669046 -1.996763 5.509013 0.000000 0.000000 0.000000 8.589130 1.401179 -24.852590 12.544235 -20.615834 2.290328 19.748746 1.731488 11.723423 0.000000 0.000000 0.000000 -7.125000 0.000000 0.000000 -5.183466 17.576858 -3.390055 0.000000 0.000000 0.000000 -0.312531 4.975066 4.991004 -13.512219 -22.033054 -2.642379 -9.902927 11.811620 50.279570 0.000000 0.000000 0.000000 7.125000 0.000000 0.000000 58.540294 73.907815 -43.427879
9.078257 16.226037 31.667189 178.432886 -2.600755 -153.361776 0.000000 0.000000 0.000000 -16.773334 -21.506656 -25.837695 0.595080 4.938612 13.733646 0.357498 -0.216223 -11.221436 3.513325 -11.482411 -33.925399 0.000000 0.000000 0.000000 16.443447 17.927599 -24.685651 -0.484813 -4.464617 12.387664 -1.470541 -3.075481 -24.193437 -1.484445 7.697653 -21.799480 -5.310506 -2.015770 -24.858981 -0.129038 -1.290513 0.786693 2.400721 -1.077383 15.069448 4.434542 -2.419744 -8.679668 -5.311075 -3.495037 14.166654 -2.659704 -1.989174 5.517554 0.000000 0.000000 0.000000 8.716893 1.522242 -24.713405 12.537626 -20.605925 2.287967 19.771714 1.877096 11.563366 0.000000 0.000000 0.000000 -7.125000 0.000000 0.000000 -5.163920 17.743301 -3.358336 0.000000 0.000000 0.000000 -0.333904 4.998834 4.669647 -13.432036 -21.917012 -2.612330 -9.796895 11.963713 50.296201 0.000000 0.000000 0.000000 7.125000 0.000000 0.000000 58.665750 73.875728 -43.501498
9.080083 16.226705 31.670482 178.511858 -2.516980 -153.210115 0.000000 0.000000 0.000000 -16.593630 -21.558351 -26.085838 0.603576 4.973191 13.832106 0.361415 -0.074428 -11.331267 3.640384 -11.665533 -34.559325 0.000000 0.000000 0.000000 16.437310 18.182714 -24.901322 -0.495491 -4.512830 12.524068 -1.473163 -3.158456 -24.253243 -1.505794 7.749994 -21.957526 -5.292127 -1.973680 -24.145273 -0.049363 -1.319499 0.491077 2.486323 -1.078259 14.310344 4.427302 -2.405042 -8.823841 -5.409810 -3.466202 14.271751 -2.693146 -1.985189 5.574514 0.000000 0.000000 0.000000 8.748965 2.282685 -24.726976 12.533106 -20.599271 2.286427 19.933411 1.894245 11.535731 0.000000 0.000000 0.000000 -7.125000 0.000000 0.000000 -5.050081 17.759087 -3.281898 0.000000 0.000000 0.000000 -0.503041 5.792846 4.672507 -13.465024 -21.964824 -2.624640 -9.774051 11.857947 50.412481 0.000000 0.000000 0.000000 7.125000 0.000000 0.000000 59.050476 73.918942 -43.877147
9.082817 16.223903 31.673935 178.446252 -2.528615 -152.989337 0.000000 0.000000 0.000000 -16.530592 -21.761837 -26.357855 0.610588 5.001155 13.911912 0.360115 0.063148 -11.359252 3.770386 -11.848495 -35.197989 0.000000 0.000000 0.000000 16.250239 18.391063 -25.213259 -0.508190 -4.569754 12.685468 -1.472863 -3.356707 -24.346526 -1.585375 7.942842 -22.540717 -5.403721 -2.023112 -24.122397 0.002737 -1.349887 0.579450 2.599312 -1.102697 14.410393 4.343632 -2.409903 -8.873155 -5.366251 -3.465263 14.233560 -2.665693 -1.984600 5.573578 0.000000 0.000000 0.000000 8.862720 2.385176 -24.969908 12.530674 -20.595688 2.285579 20.091827 1.631418 11.629804 0.000000 0.000000 0.000000 -7.125000 0.000000 0.000000 -4.941316 17.646674 -3.222969 0.000000 0.000000 0.000000 -0.680153 5.917310 4.591116 -13.480865 -21.987793 -2.630624 -10.063944 11.848197 50.751025 0.000000 0.000000 0.000000 7.125000 0.000000 0.000000 59.938709 74.175121 -44.913418
